<?xml version="1.0" encoding="UTF-8" standalone="no"?>
<!DOCTYPE svg PUBLIC "-//W3C//DTD SVG 1.1//EN" "http://www.w3.org/Graphics/SVG/1.1/DTD/svg11.dtd">
<svg width="100%" height="100%" viewBox="0 0 1024 1024" version="1.1" xmlns="http://www.w3.org/2000/svg" xmlns:xlink="http://www.w3.org/1999/xlink" xml:space="preserve" xmlns:serif="http://www.serif.com/" style="fill-rule:evenodd;clip-rule:evenodd;stroke-linecap:round;stroke-linejoin:round;stroke-miterlimit:1.5;">
    <g transform="matrix(1,0,0,1,-104.012,-104.008)">
        <g id="Edit-your-icon-here" serif:id="Edit your icon here" transform="matrix(1.55974,0,0,3.41739,-920.02,2548.72)">
            <rect x="656.54" y="-715.374" width="656.505" height="299.639" style="fill:none;"/>
            <clipPath id="_clip1">
                <rect x="656.54" y="-715.374" width="656.505" height="299.639"/>
            </clipPath>
            <g clip-path="url(#_clip1)">
                <g id="Background" transform="matrix(5.04464,0,0,1.6754,2553.83,-715.397)">
                    <clipPath id="_clip2">
                        <rect x="-376.101" y="0.021" width="130.142" height="178.849"/>
                    </clipPath>
                    <g clip-path="url(#_clip2)">
                        <g id="Capa1" transform="matrix(0.127092,0,0,0.174667,-376.101,0.0083576)">
                            <g transform="matrix(-1,0,0,0.999942,1024,0.0739829)">
                                <rect x="0" y="0" width="1024" height="1024" style="fill:rgb(81,106,226);"/>
                            </g>
                            <g id="Rainbow-" serif:id="Rainbow+" transform="matrix(1.80189,0,0,1.80178,-4614.04,-890.456)">
                                <g transform="matrix(0.131958,0.0517484,-0.738251,1.88253,3286.24,-2246.73)">
                                    <rect x="2063.64" y="450.813" width="941.246" height="2230.95" style="fill:rgb(86,105,218);"/>
                                </g>
                                <g transform="matrix(0.131958,0.0517484,-0.674363,1.71962,3257.44,-1809.84)">
                                    <rect x="2063.64" y="450.813" width="941.246" height="2230.95" style="fill:rgb(134,88,204);"/>
                                </g>
                                <g transform="matrix(0.131958,0.0517484,-0.610136,1.55584,3228.49,-1370.63)">
                                    <rect x="2063.64" y="450.813" width="941.246" height="2230.95" style="fill:rgb(174,95,189);"/>
                                </g>
                                <g transform="matrix(0.131958,0.0517484,-0.54614,1.39265,3199.63,-932.992)">
                                    <rect x="2063.64" y="450.813" width="941.246" height="2230.95" style="fill:rgb(232,73,149);"/>
                                </g>
                                <g transform="matrix(0.131958,0.0517484,-0.508065,1.29556,3240.47,-672.625)">
                                    <rect x="2063.64" y="450.813" width="941.246" height="2230.95" style="fill:rgb(235,121,121);"/>
                                </g>
                            </g>
                            <g id="Pico-Vector" serif:id="Pico Vector" transform="matrix(1.70838,0,0,1.70828,-499.176,-399.689)">
                                <g transform="matrix(0.930479,0.366346,-0.366346,0.930479,582.415,-1112.11)">
                                    <clipPath id="_clip3">
                                        <path d="M828.601,1391.97L737.295,1160.07L160.947,1386.98L387.947,1963.54L964.296,1736.62L892.403,1554.02L763.555,1604.75L699.752,1442.7L828.601,1391.97Z"/>
                                    </clipPath>
                                    <g clip-path="url(#_clip3)">
                                        <path d="M792.51,1408.16C792.51,1371.51 762.758,1341.76 726.111,1341.76L469.828,1341.76C433.182,1341.76 403.43,1371.51 403.43,1408.16L403.43,1664.44C403.43,1701.09 433.182,1730.84 469.828,1730.84L726.111,1730.84C762.758,1730.84 792.51,1701.09 792.51,1664.44L792.51,1408.16Z" style="fill:none;stroke:white;stroke-width:46.83px;"/>
                                    </g>
                                </g>
                                <g transform="matrix(0.696747,0,0,1.47342,173.141,-946.828)">
                                    <path d="M393.974,1076.39C413.684,1076.39 424.926,1070.87 424.926,1061.07L424.926,1047.47L455.002,1047.47C504.204,1047.47 537.638,1033.31 537.638,1011.36C537.638,989.197 506.102,975.044 459.236,975.044L393.974,975.044C374.264,975.044 363.021,980.567 363.021,990.371L363.021,1061.07C363.021,1070.87 374.264,1076.39 393.974,1076.39ZM424.926,1025.86L424.926,997.068L442.738,997.068C462.886,997.068 475.15,1001.97 475.15,1011.43C475.15,1020.96 462.886,1025.86 442.3,1025.86L424.926,1025.86Z" style="fill:white;fill-rule:nonzero;"/>
                                    <path d="M586.11,992.166C603.046,992.166 615.894,986.367 615.894,978.772C615.894,971.178 603.046,965.378 586.11,965.378C569.174,965.378 556.326,971.178 556.326,978.772C556.326,986.367 569.174,992.166 586.11,992.166ZM586.11,1076.39C605.09,1076.39 616.04,1071.08 616.04,1061.76L616.04,1011.43C616.04,1002.11 605.09,996.723 586.11,996.723C567.13,996.723 556.18,1002.04 556.18,1011.36L556.18,1061.76C556.18,1071.08 567.13,1076.39 586.11,1076.39Z" style="fill:white;fill-rule:nonzero;"/>
                                    <path d="M718.532,1076.6C750.798,1076.6 780.144,1069.7 791.532,1059.55C794.744,1056.65 795.912,1054.3 795.912,1052.09C795.912,1045.19 784.232,1041.18 771.092,1041.18C758.536,1041.18 751.82,1043.67 744.228,1048.78C738.826,1052.44 731.672,1055.55 720.138,1055.55C703.494,1055.55 695.026,1049.06 695.026,1036.49C695.026,1023.99 703.786,1017.57 720.576,1017.57C730.358,1017.57 737.804,1020.06 745.104,1025.86C750.506,1030.07 757.66,1032.21 769.048,1032.21C782.48,1032.21 794.744,1028.41 794.744,1021.72C794.744,1019.51 793.284,1016.81 790.802,1014.33C779.706,1003.21 752.404,996.516 718.24,996.516C666.41,996.516 634.436,1011.63 634.436,1036.49C634.436,1061.62 666.264,1076.6 718.532,1076.6Z" style="fill:white;fill-rule:nonzero;"/>
                                    <path d="M895.047,1076.6C947.753,1076.6 979.873,1062.31 979.873,1036.49C979.873,1011.29 947.023,996.516 895.047,996.516C843.362,996.516 810.366,1011.43 810.366,1036.49C810.366,1062.24 842.486,1076.6 895.047,1076.6ZM895.047,1056.37C880.009,1056.37 871.102,1049.33 871.102,1036.56C871.102,1024.13 880.447,1016.74 895.047,1016.74C909.793,1016.74 919.137,1024.13 919.137,1036.56C919.137,1049.33 909.939,1056.37 895.047,1056.37Z" style="fill:white;fill-rule:nonzero;"/>
                                </g>
                            </g>
                        </g>
                    </g>
                </g>
            </g>
        </g>
    </g>
</svg>
